<svg xmlns="http://www.w3.org/2000/svg" viewBox="0 0 100 100" width="100" height="100">
  <rect width="100" height="100" fill="#F37021"/>
  <g transform="translate(9.0000,30.3261) scale(0.027768,-0.027768) translate(-94.0000,-1397.0000)" fill="#FFFFFF">
    <path d="M776 1397Q926 1397 1051.0 1345.0Q1176 1293 1268.0 1199.0Q1360 1105 1410.5 975.5Q1461 846 1461 691Q1461 535 1411.0 405.0Q1361 275 1269.0 179.5Q1177 84 1052.5 32.0Q928 -20 779 -20Q630 -20 505.0 31.5Q380 83 287.5 177.5Q195 272 144.5 401.5Q94 531 94 687Q94 842 144.0 972.0Q194 1102 286.0 1197.5Q378 1293 503.0 1345.0Q628 1397 776 1397ZM786 54Q936 54 1045.0 128.0Q1154 202 1213.0 337.5Q1272 473 1272 658Q1272 869 1207.5 1017.5Q1143 1166 1029.5 1244.5Q916 1323 769 1323Q619 1323 510.0 1249.0Q401 1175 342.0 1039.5Q283 904 283 719Q283 508 347.5 359.5Q412 211 525.5 132.5Q639 54 786 54Z" transform="translate(0,0)"/>
    <path d="M348 523V601H1028V523ZM1281 84 1432 35V0H915V35L1092 82L615 1198H665L227 85L401 35V0H-16V35L137 87L668 1397H711Z" transform="translate(1615.0,0)"/>
  </g>
</svg>
